# xmcd
#
# Track frame offsets: 
#        150
#        48230
#        81637
#        109047
#        142935
#        169767
#        202830
#        229052
#        243505
#        272895
#
# Disc length: 4000 seconds
#
# Revision: 1
# Processed by: cddbd v1.5.2PL0 Copyright (c) Steve Scherf et al.
# Submitted via: ExactAudioCopy v0.99pb5
#
DISCID=850f9e0a
DTITLE=Gilad Hekselman - Words Unspoken
DYEAR=2008
DGENRE=LateSet
TTITLE0=Ga'agua
TTITLE1=New York Angels
TTITLE2=April In Paris
TTITLE3=Words Unspoken
TTITLE4=Countdown
TTITLE5=Someone To Watch Over Me
TTITLE6=Yo Mama's Blues
TTITLE7=Time After Time
TTITLE8=How Long Has Time Been Going On
TTITLE9=Will The Song Ever End?
EXTD=YEAR: 2008
EXTT0=
EXTT1=
EXTT2=
EXTT3=
EXTT4=
EXTT5=
EXTT6=
EXTT7=
EXTT8=
EXTT9=
PLAYORDER=
